<?xml version="1.0" standalone="no"?>
<!DOCTYPE svg PUBLIC "-//W3C//DTD SVG 20010904//EN"
 "http://www.w3.org/TR/2001/REC-SVG-20010904/DTD/svg10.dtd">
<svg version="1.0" xmlns="http://www.w3.org/2000/svg"
 width="900.000000pt" height="900.000000pt" viewBox="0 0 900.000000 900.000000"
 preserveAspectRatio="xMidYMid meet">
<metadata>
Created by potrace 1.10, written by Peter Selinger 2001-2011
</metadata>
<g transform="translate(0.000000,900.000000) scale(0.100000,-0.100000)"
fill="#ffffff" stroke="none">
<path d="M4442 7823 c-22 -21 -58 -54 -80 -73 -22 -19 -80 -71 -128 -115 -49
-44 -118 -106 -154 -137 -36 -31 -91 -80 -122 -110 -31 -29 -69 -64 -83 -77
-15 -13 -73 -64 -129 -115 -55 -50 -121 -109 -146 -130 -42 -36 -87 -77 -295
-268 -44 -40 -119 -106 -165 -147 -98 -86 -205 -183 -329 -296 -47 -44 -124
-113 -171 -154 -72 -63 -237 -211 -274 -247 -25 -23 -235 -211 -272 -243 -21
-18 -79 -70 -128 -115 -197 -180 -224 -204 -301 -271 -44 -38 -104 -92 -133
-120 -29 -27 -72 -65 -94 -85 -22 -19 -84 -75 -137 -124 -53 -49 -127 -116
-166 -149 -38 -33 -100 -88 -137 -121 -152 -140 -211 -191 -229 -200 -54 -26
-4 -31 352 -36 l364 -5 5 -1545 5 -1545 23 -57 c24 -59 86 -148 103 -148 6 0
22 -9 36 -20 14 -11 56 -29 93 -40 64 -19 96 -20 1023 -20 526 0 958 1 959 3
2 1 5 592 8 1312 l5 1310 745 0 745 0 5 -1310 5 -1310 960 -2 c931 -3 961 -2
1026 17 36 11 78 29 92 40 14 11 30 20 36 20 17 0 79 89 103 148 l23 57 5
1545 5 1545 355 3 c195 1 358 6 363 11 4 4 -24 37 -63 72 -39 35 -92 84 -118
108 -26 24 -99 89 -162 145 -108 95 -149 133 -360 325 -47 43 -105 95 -130
117 -42 36 -204 182 -276 249 -61 56 -119 108 -234 209 -102 90 -195 175 -315
285 -94 87 -410 369 -451 403 -25 21 -58 50 -73 65 -57 57 -138 131 -221 202
-47 41 -112 99 -146 130 -190 174 -243 222 -278 252 -54 46 -255 227 -288 258
-32 32 -48 46 -228 206 -80 70 -177 158 -216 194 -96 89 -156 141 -165 141 -3
0 -25 -17 -47 -37z"/>
</g>
</svg>
