<?xml version="1.0" standalone="no"?>
<!DOCTYPE svg PUBLIC "-//W3C//DTD SVG 20010904//EN"
 "http://www.w3.org/TR/2001/REC-SVG-20010904/DTD/svg10.dtd">
<svg version="1.0" xmlns="http://www.w3.org/2000/svg"
 width="300.000000pt" height="294.000000pt" viewBox="0 0 300.000000 294.000000"
 preserveAspectRatio="xMidYMid meet">
<metadata>
Created by potrace 1.10, written by Peter Selinger 2001-2011
</metadata>
<g transform="translate(0.000000,294.000000) scale(0.100000,-0.100000)"
fill="#ffffff" stroke="none">
<path d="M1305 2755 c-209 -34 -413 -117 -577 -235 -99 -71 -241 -213 -312
-312 -154 -217 -238 -484 -238 -758 0 -222 44 -413 140 -602 190 -372 538
-628 962 -710 36 -6 135 -12 220 -12 234 0 388 36 595 139 370 185 638 545
710 952 20 114 20 342 0 456 -46 259 -165 493 -351 687 -190 197 -422 326
-687 381 -134 27 -341 34 -462 14z m316 -405 c164 -51 272 -200 272 -375 0
-283 -277 -468 -545 -366 -162 62 -271 257 -239 428 45 244 278 386 512 313z
m114 -1052 c314 -64 555 -220 555 -358 0 -74 -200 -263 -365 -345 -138 -69
-261 -97 -420 -98 -184 0 -322 35 -472 119 -151 84 -323 256 -323 323 0 109
146 230 370 309 235 81 429 96 655 50z"/>
</g>
</svg>
